<svg width="61" height="18" viewBox="0 0 61 18" fill="none" xmlns="http://www.w3.org/2000/svg">
<path d="M0.819 4.587C1.03367 4.56833 1.18767 4.54033 1.281 4.503C1.37433 4.46567 1.43733 4.40033 1.47 4.307C1.50267 4.21367 1.519 4.05967 1.519 3.845V1.038C1.24833 1.04733 1.057 1.07067 0.945 1.108C0.837667 1.14533 0.763 1.22233 0.721 1.339C0.679 1.451 0.641667 1.65633 0.609 1.955L0.035 1.997C0.0676667 1.60967 0.0956667 1.11267 0.119 0.506L0.196 0.429L0.889 0.506H3.073L3.78 0.429L3.857 0.506C3.86633 1.066 3.88967 1.549 3.927 1.955L3.353 1.997C3.31567 1.67967 3.276 1.46267 3.234 1.346C3.19667 1.22933 3.12667 1.15233 3.024 1.115C2.926 1.073 2.74867 1.04733 2.492 1.038C2.46867 1.38333 2.44767 1.85233 2.429 2.445C2.415 3.03767 2.408 3.57667 2.408 4.062C2.408 4.23467 2.43833 4.35833 2.499 4.433C2.55967 4.50767 2.65767 4.545 2.793 4.545C2.90967 4.545 3.03333 4.538 3.164 4.524L3.192 4.559L3.129 5.028C2.63433 5.00933 2.233 5 1.925 5C1.68233 5 1.295 5.014 0.763 5.042L0.819 4.587ZM4.26568 4.65C4.42435 4.63133 4.53168 4.58933 4.58768 4.524C4.64368 4.454 4.67168 4.33733 4.67168 4.174L4.67868 2.179C4.67868 2.06233 4.66701 1.98533 4.64368 1.948C4.62035 1.906 4.57135 1.885 4.49668 1.885L4.32868 1.892L4.28668 1.836L4.33568 1.479C4.41035 1.479 4.55268 1.48133 4.76268 1.486C4.97735 1.49067 5.20601 1.493 5.44868 1.493C6.27468 1.493 6.86268 1.472 7.21268 1.43L7.26168 1.493C7.24768 1.55367 7.22435 1.68667 7.19168 1.892C7.16368 2.09267 7.14268 2.30033 7.12868 2.515L6.54768 2.55C6.54768 2.536 6.55001 2.508 6.55468 2.466C6.55935 2.41933 6.56168 2.375 6.56168 2.333C6.56168 2.23033 6.54535 2.158 6.51268 2.116C6.48001 2.074 6.41701 2.046 6.32368 2.032C6.23035 2.01333 6.07635 2.004 5.86168 2.004C5.73568 2.004 5.65635 2.01333 5.62368 2.032C5.59568 2.05067 5.57935 2.09733 5.57468 2.172L5.53968 2.963H6.05768C6.14168 2.963 6.26068 2.95833 6.41468 2.949C6.56868 2.935 6.67135 2.92567 6.72268 2.921L6.77868 2.984L6.69468 3.488C6.64335 3.488 6.54535 3.48567 6.40068 3.481C6.26068 3.47633 6.11135 3.474 5.95268 3.474C5.82668 3.474 5.68201 3.48567 5.51868 3.509C5.50935 3.733 5.50468 3.96167 5.50468 4.195C5.50468 4.29767 5.51168 4.37 5.52568 4.412C5.53968 4.454 5.57001 4.48433 5.61668 4.503C5.66335 4.517 5.74268 4.524 5.85468 4.524C6.08801 4.524 6.25835 4.51 6.36568 4.482C6.47301 4.44933 6.55001 4.39333 6.59668 4.314C6.64335 4.23 6.68068 4.09467 6.70868 3.908L7.24068 3.866L7.29668 3.929C7.28268 3.985 7.25701 4.11567 7.21968 4.321C7.18701 4.52633 7.15901 4.74333 7.13568 4.972L7.07268 5.035C6.95601 5.03033 6.70168 5.02333 6.30968 5.014C5.92235 5.00467 5.57235 5 5.25968 5C5.04035 5 4.82801 5.007 4.62268 5.021C4.41735 5.03967 4.28435 5.05133 4.22368 5.056L4.26568 4.65ZM7.87571 4.65C8.02038 4.62667 8.11838 4.58233 8.16971 4.517C8.22571 4.447 8.25371 4.33267 8.25371 4.174V2.165C8.25371 2.053 8.23971 1.97833 8.21171 1.941C8.18371 1.90367 8.13004 1.885 8.05071 1.885H7.88271L7.84071 1.829L7.88971 1.486L8.70171 1.493C8.87438 1.493 9.05638 1.48833 9.24771 1.479C9.44371 1.46967 9.57904 1.46267 9.65371 1.458L9.60471 1.885C9.46938 1.899 9.37138 1.91767 9.31071 1.941C9.25004 1.96433 9.21038 1.99933 9.19171 2.046C9.17304 2.088 9.15904 2.15567 9.14971 2.249C9.10771 2.81367 9.08671 3.46933 9.08671 4.216C9.08671 4.33733 9.10771 4.419 9.14971 4.461C9.19638 4.503 9.28504 4.524 9.41571 4.524C9.59304 4.524 9.72604 4.503 9.81471 4.461C9.90804 4.41433 9.97571 4.335 10.0177 4.223C10.0644 4.10633 10.1017 3.92433 10.1297 3.677L10.6617 3.621L10.7037 3.684C10.6944 3.754 10.6734 3.91733 10.6407 4.174C10.608 4.43067 10.58 4.69667 10.5567 4.972L10.4937 5.042C10.391 5.03733 10.1647 5.028 9.81471 5.014C9.46938 5.00467 9.14971 5 8.85571 5C8.63638 5 8.42404 5.007 8.21871 5.021C8.01338 5.03967 7.88271 5.05133 7.82671 5.056L7.87571 4.65ZM11.0202 4.65C11.1649 4.62667 11.2629 4.58233 11.3142 4.517C11.3702 4.447 11.3982 4.33267 11.3982 4.174V2.165C11.3982 2.053 11.3842 1.97833 11.3562 1.941C11.3282 1.90367 11.2746 1.885 11.1952 1.885H11.0272L10.9852 1.829L11.0342 1.486L11.8462 1.493C12.0189 1.493 12.2009 1.48833 12.3922 1.479C12.5882 1.46967 12.7236 1.46267 12.7982 1.458L12.7492 1.885C12.6139 1.899 12.5159 1.91767 12.4552 1.941C12.3946 1.96433 12.3549 1.99933 12.3362 2.046C12.3176 2.088 12.3036 2.15567 12.2942 2.249C12.2522 2.81367 12.2312 3.46933 12.2312 4.216C12.2312 4.33733 12.2522 4.419 12.2942 4.461C12.3409 4.503 12.4296 4.524 12.5602 4.524C12.7376 4.524 12.8706 4.503 12.9592 4.461C13.0526 4.41433 13.1202 4.335 13.1622 4.223C13.2089 4.10633 13.2462 3.92433 13.2742 3.677L13.8062 3.621L13.8482 3.684C13.8389 3.754 13.8179 3.91733 13.7852 4.174C13.7526 4.43067 13.7246 4.69667 13.7012 4.972L13.6382 5.042C13.5356 5.03733 13.3092 5.028 12.9592 5.014C12.6139 5.00467 12.2942 5 12.0002 5C11.7809 5 11.5686 5.007 11.3632 5.021C11.1579 5.03967 11.0272 5.05133 10.9712 5.056L11.0202 4.65ZM17.2908 5.077C16.9081 3.89167 16.6304 3.096 16.4578 2.69H16.4018C16.3924 2.858 16.3761 3.13567 16.3528 3.523C16.3294 3.91033 16.3131 4.21367 16.3038 4.433C16.3038 4.49367 16.3178 4.538 16.3458 4.566C16.3784 4.594 16.4274 4.608 16.4928 4.608H16.6748L16.7098 4.636L16.6538 5.021C16.5978 5.021 16.4951 5.01633 16.3458 5.007C16.1964 5.00233 16.0588 5 15.9328 5C15.8348 5 15.7204 5.00467 15.5898 5.014C15.4638 5.028 15.3798 5.03733 15.3378 5.042L15.3728 4.643C15.4848 4.63367 15.5664 4.601 15.6178 4.545C15.6738 4.48433 15.7064 4.38867 15.7158 4.258C15.7484 4.01067 15.7928 3.61167 15.8488 3.061C15.9094 2.51033 15.9398 2.2 15.9398 2.13C15.9398 2.032 15.9141 1.969 15.8628 1.941C15.8114 1.90833 15.6971 1.885 15.5198 1.871L15.4848 1.829L15.5408 1.465C15.6014 1.46967 15.7064 1.47667 15.8558 1.486C16.0098 1.49067 16.1568 1.493 16.2968 1.493C16.4414 1.493 16.5791 1.49067 16.7098 1.486C16.8451 1.48133 16.9361 1.47667 16.9828 1.472C17.1134 1.934 17.2441 2.37267 17.3748 2.788C17.5101 3.19867 17.5988 3.46233 17.6408 3.579H17.6968C17.7388 3.46233 17.8298 3.19867 17.9698 2.788C18.1098 2.37733 18.2521 1.94567 18.3968 1.493C18.4574 1.48833 18.5134 1.48833 18.5648 1.493C18.6208 1.493 18.6698 1.493 18.7118 1.493C18.7631 1.49767 18.8471 1.5 18.9638 1.5C19.0571 1.5 19.1271 1.49767 19.1738 1.493C19.2998 1.48833 19.4164 1.48367 19.5238 1.479C19.6358 1.46967 19.7104 1.46267 19.7478 1.458L19.7758 1.479L19.7338 1.857C19.5751 1.86633 19.4678 1.892 19.4118 1.934C19.3558 1.97133 19.3278 2.04133 19.3278 2.144C19.3278 2.27467 19.3418 2.55933 19.3698 2.998C19.4024 3.432 19.4328 3.80533 19.4608 4.118C19.4841 4.30933 19.5144 4.44 19.5518 4.51C19.5891 4.57533 19.6521 4.608 19.7408 4.608L19.9018 4.601L19.9298 4.636L19.8808 5.014C19.8388 5.014 19.7594 5.01167 19.6428 5.007C19.5308 5.00233 19.4094 5 19.2788 5C19.1434 5.00467 18.9824 5.00933 18.7958 5.014C18.6138 5.02333 18.4784 5.03267 18.3898 5.042L18.4318 4.643C18.5484 4.629 18.6301 4.60333 18.6768 4.566C18.7281 4.524 18.7538 4.45867 18.7538 4.37C18.7538 4.28133 18.7398 4.01767 18.7118 3.579C18.6838 3.14033 18.6651 2.844 18.6558 2.69H18.5998C18.5158 2.89533 18.3944 3.21733 18.2358 3.656C18.0818 4.09 17.9254 4.54733 17.7668 5.028L17.2908 5.077ZM20.3985 4.65C20.5572 4.63133 20.6645 4.58933 20.7205 4.524C20.7765 4.454 20.8045 4.33733 20.8045 4.174L20.8115 2.179C20.8115 2.06233 20.7998 1.98533 20.7765 1.948C20.7532 1.906 20.7042 1.885 20.6295 1.885L20.4615 1.892L20.4195 1.836L20.4685 1.479C20.5432 1.479 20.6855 1.48133 20.8955 1.486C21.1102 1.49067 21.3388 1.493 21.5815 1.493C22.4075 1.493 22.9955 1.472 23.3455 1.43L23.3945 1.493C23.3805 1.55367 23.3572 1.68667 23.3245 1.892C23.2965 2.09267 23.2755 2.30033 23.2615 2.515L22.6805 2.55C22.6805 2.536 22.6828 2.508 22.6875 2.466C22.6922 2.41933 22.6945 2.375 22.6945 2.333C22.6945 2.23033 22.6782 2.158 22.6455 2.116C22.6128 2.074 22.5498 2.046 22.4565 2.032C22.3632 2.01333 22.2092 2.004 21.9945 2.004C21.8685 2.004 21.7892 2.01333 21.7565 2.032C21.7285 2.05067 21.7122 2.09733 21.7075 2.172L21.6725 2.963H22.1905C22.2745 2.963 22.3935 2.95833 22.5475 2.949C22.7015 2.935 22.8042 2.92567 22.8555 2.921L22.9115 2.984L22.8275 3.488C22.7762 3.488 22.6782 3.48567 22.5335 3.481C22.3935 3.47633 22.2442 3.474 22.0855 3.474C21.9595 3.474 21.8148 3.48567 21.6515 3.509C21.6422 3.733 21.6375 3.96167 21.6375 4.195C21.6375 4.29767 21.6445 4.37 21.6585 4.412C21.6725 4.454 21.7028 4.48433 21.7495 4.503C21.7962 4.517 21.8755 4.524 21.9875 4.524C22.2208 4.524 22.3912 4.51 22.4985 4.482C22.6058 4.44933 22.6828 4.39333 22.7295 4.314C22.7762 4.23 22.8135 4.09467 22.8415 3.908L23.3735 3.866L23.4295 3.929C23.4155 3.985 23.3898 4.11567 23.3525 4.321C23.3198 4.52633 23.2918 4.74333 23.2685 4.972L23.2055 5.035C23.0888 5.03033 22.8345 5.02333 22.4425 5.014C22.0552 5.00467 21.7052 5 21.3925 5C21.1732 5 20.9608 5.007 20.7555 5.021C20.5502 5.03967 20.4172 5.05133 20.3565 5.056L20.3985 4.65ZM26.8773 5L26.9053 4.636C27.0407 4.622 27.1363 4.61033 27.1923 4.601C27.2483 4.587 27.2857 4.56833 27.3043 4.545C27.3277 4.52167 27.3393 4.48667 27.3393 4.44C27.3393 4.38867 27.33 4.335 27.3113 4.279L27.2133 3.915C27.1153 3.91033 26.945 3.908 26.7023 3.908C26.595 3.908 26.4177 3.91967 26.1703 3.943L26.0443 4.307C26.0257 4.377 26.0163 4.42833 26.0163 4.461C26.0163 4.52167 26.0327 4.56367 26.0653 4.587C26.1027 4.60567 26.1703 4.615 26.2683 4.615H26.4853L26.5203 4.664L26.4783 5.028C26.4223 5.02333 26.3033 5.01633 26.1213 5.007C25.944 5.00233 25.7783 5 25.6243 5C25.461 5 25.3117 5.00233 25.1763 5.007C25.0457 5.01167 24.9593 5.014 24.9173 5.014L24.9593 4.622C25.0433 4.608 25.111 4.57533 25.1623 4.524C25.2183 4.468 25.2697 4.38633 25.3163 4.279L26.3243 1.521L27.3533 1.43L27.4233 1.472C27.4793 1.682 27.5983 2.11133 27.7803 2.76C27.9623 3.40867 28.1117 3.90567 28.2283 4.251C28.2657 4.377 28.3147 4.468 28.3753 4.524C28.4407 4.58 28.534 4.61267 28.6553 4.622L28.6833 4.664L28.6413 5.014C28.59 5.014 28.492 5.01167 28.3473 5.007C28.2073 5.00233 28.0627 5 27.9133 5C27.7033 5 27.498 5.00467 27.2973 5.014C27.0967 5.028 26.9683 5.03733 26.9123 5.042L26.8773 5ZM26.7023 3.418C26.8563 3.418 26.9917 3.411 27.1083 3.397L26.7933 2.263H26.7093L26.3243 3.418H26.7023ZM29.8379 5C29.7026 5 29.5369 5.007 29.3409 5.021C29.1496 5.035 29.0236 5.04433 28.9629 5.049L29.0049 4.65C29.1683 4.622 29.2779 4.58 29.3339 4.524C29.3899 4.46333 29.4179 4.363 29.4179 4.223L29.4249 2.144C29.4249 2.05067 29.4109 1.98533 29.3829 1.948C29.3549 1.906 29.3083 1.885 29.2429 1.885L29.0469 1.892L28.9979 1.843L29.0609 1.479L29.8939 1.493C30.0479 1.48833 30.2206 1.48367 30.4119 1.479C30.6079 1.46967 30.7456 1.46267 30.8249 1.458C31.2263 1.458 31.5319 1.53267 31.7419 1.682C31.9566 1.82667 32.0639 2.03667 32.0639 2.312C32.0639 2.46133 32.0289 2.59433 31.9589 2.711C31.8889 2.82767 31.8073 2.92333 31.7139 2.998C31.6206 3.068 31.5366 3.117 31.4619 3.145C31.6393 3.18233 31.8143 3.26867 31.9869 3.404C32.1643 3.53467 32.2529 3.71667 32.2529 3.95C32.2529 4.29067 32.1153 4.56133 31.8399 4.762C31.5646 4.958 31.1913 5.056 30.7199 5.056L30.5029 5.042C30.2043 5.014 29.9826 5 29.8379 5ZM30.2789 2.956C30.3256 2.96067 30.4143 2.97233 30.5449 2.991C30.6756 3.005 30.7643 3.012 30.8109 3.012C30.8109 3.02133 30.8436 3.005 30.9089 2.963C30.9789 2.91633 31.0396 2.85333 31.0909 2.774C31.1469 2.69 31.1749 2.58733 31.1749 2.466C31.1749 2.298 31.1143 2.17433 30.9929 2.095C30.8716 2.01567 30.6826 1.976 30.4259 1.976C30.3886 1.976 30.3629 1.983 30.3489 1.997C30.3349 2.011 30.3256 2.03667 30.3209 2.074C30.2929 2.44733 30.2789 2.74133 30.2789 2.956ZM30.2439 4.23C30.2439 4.33733 30.2836 4.41433 30.3629 4.461C30.4423 4.50767 30.5753 4.531 30.7619 4.531C30.9393 4.531 31.0769 4.48667 31.1749 4.398C31.2729 4.30933 31.3219 4.18567 31.3219 4.027C31.3219 3.89633 31.2753 3.78667 31.1819 3.698C31.0933 3.60467 30.9603 3.53933 30.7829 3.502H30.2649L30.2439 4.23ZM34.3879 5.063C33.8652 5.063 33.4545 4.91133 33.1559 4.608C32.8619 4.3 32.7149 3.87533 32.7149 3.334C32.7149 2.94667 32.7919 2.61067 32.9459 2.326C33.0999 2.03667 33.3192 1.815 33.6039 1.661C33.8932 1.507 34.2292 1.43 34.6119 1.43C35.1439 1.43 35.5569 1.58167 35.8509 1.885C36.1449 2.18367 36.2919 2.60367 36.2919 3.145C36.2919 3.53233 36.2125 3.87067 36.0539 4.16C35.8999 4.44933 35.6782 4.67333 35.3889 4.832C35.1042 4.986 34.7705 5.063 34.3879 5.063ZM34.5279 4.538C34.7799 4.538 34.9735 4.44467 35.1089 4.258C35.2442 4.07133 35.3119 3.80067 35.3119 3.446C35.3119 2.97 35.2372 2.613 35.0879 2.375C34.9432 2.137 34.7332 2.018 34.4579 2.018C34.2105 2.018 34.0215 2.109 33.8909 2.291C33.7602 2.473 33.6949 2.74367 33.6949 3.103C33.6949 3.58367 33.7649 3.943 33.9049 4.181C34.0495 4.419 34.2572 4.538 34.5279 4.538ZM38.3799 5.063C37.9226 5.063 37.5819 4.96733 37.3579 4.776C37.1386 4.58467 37.0289 4.29067 37.0289 3.894V2.179C37.0289 2.05767 37.0172 1.97833 36.9939 1.941C36.9706 1.90367 36.9192 1.885 36.8399 1.885L36.6649 1.892L36.6509 1.871L36.6999 1.479C36.7559 1.479 36.8656 1.48133 37.0289 1.486C37.1969 1.49067 37.3766 1.493 37.5679 1.493C37.7079 1.493 37.8479 1.49067 37.9879 1.486C38.1279 1.47667 38.2236 1.46967 38.2749 1.465L38.2259 1.871C38.1139 1.88033 38.0346 1.906 37.9879 1.948C37.9459 1.99 37.9202 2.05767 37.9109 2.151L37.8759 3.74C37.8759 3.98267 37.9319 4.174 38.0439 4.314C38.1606 4.454 38.3239 4.524 38.5339 4.524C38.9679 4.524 39.1849 4.307 39.1849 3.873C39.1849 3.59767 39.1802 3.28267 39.1709 2.928C39.1662 2.57333 39.1639 2.32367 39.1639 2.179C39.1639 2.06233 39.1522 1.98533 39.1289 1.948C39.1056 1.906 39.0589 1.885 38.9889 1.885L38.8069 1.892L38.7929 1.871L38.8489 1.479C38.9002 1.479 38.9912 1.48133 39.1219 1.486C39.2572 1.49067 39.3902 1.493 39.5209 1.493C39.6516 1.493 39.7916 1.49067 39.9409 1.486C40.0949 1.47667 40.1952 1.46967 40.2419 1.465L40.2069 1.864C40.0669 1.89667 39.9759 1.92933 39.9339 1.962C39.8966 1.99 39.8779 2.046 39.8779 2.13V3.782C39.8779 4.19733 39.7496 4.51467 39.4929 4.734C39.2362 4.95333 38.8652 5.063 38.3799 5.063ZM41.0939 4.636C41.2712 4.622 41.3995 4.601 41.4789 4.573C41.5582 4.54033 41.6095 4.49133 41.6329 4.426C41.6609 4.356 41.6749 4.24633 41.6749 4.097V1.983C41.4882 1.98767 41.3529 2.00633 41.2689 2.039C41.1895 2.07167 41.1312 2.13467 41.0939 2.228C41.0565 2.32133 41.0239 2.48 40.9959 2.704L40.4639 2.739C40.4685 2.65967 40.4779 2.49167 40.4919 2.235C40.5105 1.97367 40.5222 1.72867 40.5269 1.5L40.5969 1.43L41.1919 1.493H42.9979L43.6069 1.43L43.6769 1.5C43.6815 1.738 43.6885 1.98067 43.6979 2.228C43.7119 2.47533 43.7212 2.634 43.7259 2.704L43.1939 2.739C43.1659 2.49633 43.1332 2.326 43.0959 2.228C43.0632 2.13 43.0095 2.067 42.9349 2.039C42.8602 2.00633 42.7342 1.98767 42.5569 1.983C42.5195 2.515 42.5009 3.264 42.5009 4.23C42.5009 4.36533 42.5242 4.461 42.5709 4.517C42.6175 4.573 42.6992 4.601 42.8159 4.601C42.8905 4.601 42.9559 4.59867 43.0119 4.594C43.0679 4.58933 43.1029 4.587 43.1169 4.587L43.1379 4.615L43.0889 5.028C43.0095 5.02333 42.8649 5.01633 42.6549 5.007C42.4449 5.00233 42.2442 5 42.0529 5C41.9175 5 41.7355 5.00467 41.5069 5.014C41.2782 5.028 41.1265 5.03733 41.0519 5.042L41.0939 4.636ZM45.9172 4.65C46.0712 4.63133 46.1855 4.608 46.2602 4.58C46.3348 4.54733 46.3838 4.50067 46.4072 4.44C46.4352 4.37467 46.4492 4.28133 46.4492 4.16V4.013C46.4492 3.92433 46.4375 3.84033 46.4142 3.761C46.3908 3.68167 46.3488 3.586 46.2882 3.474L45.7072 2.424C45.6232 2.26533 45.5368 2.14867 45.4482 2.074C45.3595 1.99933 45.2335 1.941 45.0702 1.899L45.0492 1.871L45.1052 1.486C45.1658 1.486 45.2732 1.48833 45.4272 1.493C45.5812 1.49767 45.7305 1.5 45.8752 1.5C45.9965 1.5 46.1645 1.49533 46.3792 1.486C46.5985 1.472 46.7432 1.46267 46.8132 1.458L46.8482 1.514L46.8132 1.857C46.6918 1.86167 46.6078 1.87567 46.5612 1.899C46.5145 1.92233 46.4912 1.962 46.4912 2.018C46.4912 2.06 46.5402 2.186 46.6382 2.396C46.7362 2.606 46.7945 2.732 46.8132 2.774L46.9462 3.054H47.0022L47.4152 2.228C47.4758 2.12067 47.5062 2.03667 47.5062 1.976C47.5062 1.93867 47.4828 1.91067 47.4362 1.892C47.3942 1.87333 47.3242 1.86167 47.2262 1.857L47.2052 1.829L47.2472 1.479L47.5762 1.486C47.7815 1.49533 47.9378 1.5 48.0452 1.5C48.1852 1.5 48.3112 1.49767 48.4232 1.493C48.5398 1.48833 48.6168 1.48367 48.6542 1.479L48.6752 1.521L48.6332 1.885C48.4838 1.93633 48.3602 2.01333 48.2622 2.116C48.1642 2.21867 48.0568 2.37267 47.9402 2.578L47.3942 3.558C47.3475 3.64667 47.3195 3.73533 47.3102 3.824C47.3008 3.908 47.2938 4.05033 47.2892 4.251C47.2892 4.38167 47.3078 4.47267 47.3452 4.524C47.3872 4.57533 47.4618 4.601 47.5692 4.601C47.6345 4.601 47.6928 4.59867 47.7442 4.594C47.8002 4.58933 47.8375 4.587 47.8562 4.587L47.8772 4.615L47.8212 5.028C47.7465 5.02333 47.6088 5.01633 47.4082 5.007C47.2075 5.00233 47.0115 5 46.8202 5C46.6802 5 46.5028 5.007 46.2882 5.021C46.0782 5.03967 45.9405 5.05133 45.8752 5.056L45.9172 4.65ZM50.3293 5.063C49.8066 5.063 49.396 4.91133 49.0973 4.608C48.8033 4.3 48.6563 3.87533 48.6563 3.334C48.6563 2.94667 48.7333 2.61067 48.8873 2.326C49.0413 2.03667 49.2606 1.815 49.5453 1.661C49.8346 1.507 50.1706 1.43 50.5533 1.43C51.0853 1.43 51.4983 1.58167 51.7923 1.885C52.0863 2.18367 52.2333 2.60367 52.2333 3.145C52.2333 3.53233 52.154 3.87067 51.9953 4.16C51.8413 4.44933 51.6196 4.67333 51.3303 4.832C51.0456 4.986 50.712 5.063 50.3293 5.063ZM50.4693 4.538C50.7213 4.538 50.915 4.44467 51.0503 4.258C51.1856 4.07133 51.2533 3.80067 51.2533 3.446C51.2533 2.97 51.1786 2.613 51.0293 2.375C50.8846 2.137 50.6746 2.018 50.3993 2.018C50.152 2.018 49.963 2.109 49.8323 2.291C49.7016 2.473 49.6363 2.74367 49.6363 3.103C49.6363 3.58367 49.7063 3.943 49.8463 4.181C49.991 4.419 50.1986 4.538 50.4693 4.538ZM54.3213 5.063C53.864 5.063 53.5233 4.96733 53.2993 4.776C53.08 4.58467 52.9703 4.29067 52.9703 3.894V2.179C52.9703 2.05767 52.9586 1.97833 52.9353 1.941C52.912 1.90367 52.8606 1.885 52.7813 1.885L52.6063 1.892L52.5923 1.871L52.6413 1.479C52.6973 1.479 52.807 1.48133 52.9703 1.486C53.1383 1.49067 53.318 1.493 53.5093 1.493C53.6493 1.493 53.7893 1.49067 53.9293 1.486C54.0693 1.47667 54.165 1.46967 54.2163 1.465L54.1673 1.871C54.0553 1.88033 53.976 1.906 53.9293 1.948C53.8873 1.99 53.8616 2.05767 53.8523 2.151L53.8173 3.74C53.8173 3.98267 53.8733 4.174 53.9853 4.314C54.102 4.454 54.2653 4.524 54.4753 4.524C54.9093 4.524 55.1263 4.307 55.1263 3.873C55.1263 3.59767 55.1216 3.28267 55.1123 2.928C55.1076 2.57333 55.1053 2.32367 55.1053 2.179C55.1053 2.06233 55.0936 1.98533 55.0703 1.948C55.047 1.906 55.0003 1.885 54.9303 1.885L54.7483 1.892L54.7343 1.871L54.7903 1.479C54.8416 1.479 54.9326 1.48133 55.0633 1.486C55.1986 1.49067 55.3316 1.493 55.4623 1.493C55.593 1.493 55.733 1.49067 55.8823 1.486C56.0363 1.47667 56.1366 1.46967 56.1833 1.465L56.1483 1.864C56.0083 1.89667 55.9173 1.92933 55.8753 1.962C55.838 1.99 55.8193 2.046 55.8193 2.13V3.782C55.8193 4.19733 55.691 4.51467 55.4343 4.734C55.1776 4.95333 54.8066 5.063 54.3213 5.063ZM59.3593 5.084C59.0886 5.084 58.8763 4.916 58.7223 4.58L58.2533 3.663H57.8613L57.8543 4.202C57.8543 4.328 57.8636 4.419 57.8823 4.475C57.901 4.52633 57.936 4.56133 57.9873 4.58C58.0433 4.59867 58.1366 4.61033 58.2673 4.615L58.2953 4.65L58.2323 5.021C58.1576 5.01633 58.0246 5.01167 57.8333 5.007C57.6466 5.007 57.4833 5.007 57.3433 5.007C57.194 5.007 57.04 5.01167 56.8813 5.021C56.7226 5.03033 56.62 5.03733 56.5733 5.042L56.6223 4.636C56.781 4.61733 56.886 4.57767 56.9373 4.517C56.9933 4.45167 57.0213 4.342 57.0213 4.188L57.0283 2.137C57.0283 2.039 57.0143 1.97367 56.9863 1.941C56.963 1.90367 56.9186 1.885 56.8533 1.885L56.6503 1.892L56.6083 1.843L56.6643 1.486L57.4063 1.493C57.5696 1.493 57.7446 1.49067 57.9313 1.486C58.118 1.47667 58.2486 1.46967 58.3233 1.465C58.7853 1.465 59.1376 1.54667 59.3803 1.71C59.623 1.87333 59.7443 2.11133 59.7443 2.424C59.7443 2.63867 59.679 2.83467 59.5483 3.012C59.4176 3.18933 59.2286 3.33867 58.9813 3.46L59.4503 4.181C59.5623 4.34433 59.6673 4.46333 59.7653 4.538C59.8633 4.61267 59.9683 4.65 60.0803 4.65L60.1293 4.713L60.0803 5.028L59.3593 5.084ZM58.3793 3.173C58.692 3.061 58.8483 2.84633 58.8483 2.529C58.8483 2.34233 58.7806 2.20467 58.6453 2.116C58.51 2.02267 58.3023 1.976 58.0223 1.976C57.985 1.976 57.9593 1.98533 57.9453 2.004C57.936 2.018 57.929 2.05067 57.9243 2.102C57.8963 2.48467 57.8823 2.823 57.8823 3.117L58.3793 3.173ZM5.216 17.192C4.24533 17.192 3.40267 16.9893 2.688 16.584C1.97333 16.1787 1.424 15.5973 1.04 14.84C0.656 14.0827 0.464 13.1867 0.464 12.152C0.464 11.0213 0.693333 10.0347 1.152 9.192C1.61067 8.34933 2.26133 7.69867 3.104 7.24C3.95733 6.77067 4.944 6.536 6.064 6.536C6.45867 6.536 6.88 6.568 7.328 6.632C7.78667 6.68533 8.176 6.744 8.496 6.808C8.816 6.872 9.01867 6.91467 9.104 6.936L9.2 7.144C9.17867 7.21867 9.14133 7.38933 9.088 7.656C9.03467 7.92267 8.976 8.28 8.912 8.728C8.848 9.176 8.8 9.65067 8.768 10.152L7.248 10.248C7.248 10.2053 7.25333 10.1093 7.264 9.96C7.27467 9.8 7.28 9.61867 7.28 9.416C7.28 8.94667 7.136 8.60533 6.848 8.392C6.56 8.168 6.10667 8.056 5.488 8.056C4.64533 8.056 4 8.35467 3.552 8.952C3.11467 9.54933 2.896 10.4293 2.896 11.592C2.896 12.904 3.13067 13.9227 3.6 14.648C4.08 15.3733 4.74667 15.736 5.6 15.736C6.18667 15.736 6.64533 15.56 6.976 15.208C7.30667 14.8453 7.536 14.2747 7.664 13.496L9.2 13.4C9.168 13.5813 9.10933 13.9813 9.024 14.6C8.94933 15.2187 8.90133 15.8053 8.88 16.36L8.72 16.552C8.72 16.5627 8.53867 16.6267 8.176 16.744C7.824 16.8507 7.38667 16.952 6.864 17.048C6.352 17.144 5.80267 17.192 5.216 17.192ZM14.2933 17L14.3573 16.168C14.6666 16.136 14.8853 16.1093 15.0133 16.088C15.1413 16.056 15.2266 16.0133 15.2693 15.96C15.3226 15.9067 15.3493 15.8267 15.3493 15.72C15.3493 15.6027 15.3279 15.48 15.2853 15.352L15.0613 14.52C14.8373 14.5093 14.4479 14.504 13.8932 14.504C13.6479 14.504 13.2426 14.5307 12.6773 14.584L12.3893 15.416C12.3466 15.576 12.3253 15.6933 12.3253 15.768C12.3253 15.9067 12.3626 16.0027 12.4373 16.056C12.5226 16.0987 12.6773 16.12 12.9013 16.12H13.3973L13.4773 16.232L13.3813 17.064C13.2533 17.0533 12.9813 17.0373 12.5653 17.016C12.1599 17.0053 11.7813 17 11.4293 17C11.0559 17 10.7146 17.0053 10.4053 17.016C10.1066 17.0267 9.90925 17.032 9.81325 17.032L9.90925 16.136C10.1013 16.104 10.2559 16.0293 10.3733 15.912C10.5013 15.784 10.6186 15.5973 10.7253 15.352L13.0293 9.048L15.3813 8.84L15.5413 8.936C15.6693 9.416 15.9413 10.3973 16.3573 11.88C16.7733 13.3627 17.1146 14.4987 17.3813 15.288C17.4666 15.576 17.5786 15.784 17.7173 15.912C17.8666 16.04 18.0799 16.1147 18.3573 16.136L18.4213 16.232L18.3253 17.032C18.2079 17.032 17.9839 17.0267 17.6533 17.016C17.3333 17.0053 17.0026 17 16.6613 17C16.1813 17 15.7119 17.0107 15.2533 17.032C14.7946 17.064 14.5013 17.0853 14.3733 17.096L14.2933 17ZM13.8932 13.384C14.2453 13.384 14.5546 13.368 14.8213 13.336L14.1013 10.744H13.9093L13.0293 13.384H13.8932ZM25.4284 17.192C24.8097 17.192 24.3244 16.808 23.9724 16.04L22.9004 13.944H22.0044L21.9884 15.176C21.9884 15.464 22.0097 15.672 22.0524 15.8C22.095 15.9173 22.175 15.9973 22.2924 16.04C22.4204 16.0827 22.6337 16.1093 22.9324 16.12L22.9964 16.2L22.8524 17.048C22.6817 17.0373 22.3777 17.0267 21.9404 17.016C21.5137 17.016 21.1404 17.016 20.8204 17.016C20.479 17.016 20.127 17.0267 19.7644 17.048C19.4017 17.0693 19.167 17.0853 19.0604 17.096L19.1724 16.168C19.535 16.1253 19.775 16.0347 19.8924 15.896C20.0204 15.7467 20.0844 15.496 20.0844 15.144L20.1004 10.456C20.1004 10.232 20.0684 10.0827 20.0044 10.008C19.951 9.92267 19.8497 9.88 19.7004 9.88L19.2364 9.896L19.1404 9.784L19.2684 8.968L20.9644 8.984C21.3377 8.984 21.7377 8.97867 22.1644 8.968C22.591 8.94667 22.8897 8.93067 23.0604 8.92C24.1164 8.92 24.9217 9.10667 25.4764 9.48C26.031 9.85333 26.3084 10.3973 26.3084 11.112C26.3084 11.6027 26.159 12.0507 25.8604 12.456C25.5617 12.8613 25.1297 13.2027 24.5644 13.48L25.6364 15.128C25.8924 15.5013 26.1324 15.7733 26.3564 15.944C26.5804 16.1147 26.8204 16.2 27.0764 16.2L27.1884 16.344L27.0764 17.064L25.4284 17.192ZM23.1884 12.824C23.903 12.568 24.2604 12.0773 24.2604 11.352C24.2604 10.9253 24.1057 10.6107 23.7964 10.408C23.487 10.1947 23.0124 10.088 22.3724 10.088C22.287 10.088 22.2284 10.1093 22.1964 10.152C22.175 10.184 22.159 10.2587 22.1484 10.376C22.0844 11.2507 22.0524 12.024 22.0524 12.696L23.1884 12.824ZM28.0158 16.2C28.3784 16.1573 28.6238 16.0613 28.7518 15.912C28.8798 15.752 28.9438 15.4853 28.9438 15.112L28.9598 10.552C28.9598 10.2853 28.9331 10.1093 28.8798 10.024C28.8264 9.928 28.7144 9.88 28.5438 9.88L28.1598 9.896L28.0638 9.768L28.1758 8.952C28.3464 8.952 28.6718 8.95733 29.1518 8.968C29.6424 8.97867 30.1651 8.984 30.7198 8.984C32.6078 8.984 33.9518 8.936 34.7518 8.84L34.8638 8.984C34.8318 9.12267 34.7784 9.42667 34.7038 9.896C34.6398 10.3547 34.5918 10.8293 34.5598 11.32L33.2318 11.4C33.2318 11.368 33.2371 11.304 33.2478 11.208C33.2584 11.1013 33.2638 11 33.2638 10.904C33.2638 10.6693 33.2264 10.504 33.1518 10.408C33.0771 10.312 32.9331 10.248 32.7198 10.216C32.5064 10.1733 32.1544 10.152 31.6638 10.152C31.3758 10.152 31.1944 10.1733 31.1198 10.216C31.0558 10.2587 31.0184 10.3653 31.0078 10.536L30.9278 12.344H32.1118C32.3038 12.344 32.5758 12.3333 32.9278 12.312C33.2798 12.28 33.5144 12.2587 33.6318 12.248L33.7598 12.392L33.5678 13.544C33.4504 13.544 33.2264 13.5387 32.8958 13.528C32.5758 13.5173 32.2344 13.512 31.8718 13.512C31.5838 13.512 31.2531 13.5387 30.8798 13.592C30.8584 14.104 30.8478 14.6267 30.8478 15.16C30.8478 15.3947 30.8638 15.56 30.8958 15.656C30.9278 15.752 30.9971 15.8213 31.1038 15.864C31.2104 15.896 31.3918 15.912 31.6478 15.912C32.1811 15.912 32.5704 15.88 32.8158 15.816C33.0611 15.7413 33.2371 15.6133 33.3438 15.432C33.4504 15.24 33.5358 14.9307 33.5998 14.504L34.8158 14.408L34.9438 14.552C34.9118 14.68 34.8531 14.9787 34.7678 15.448C34.6931 15.9173 34.6291 16.4133 34.5758 16.936L34.4318 17.08C34.1651 17.0693 33.5838 17.0533 32.6878 17.032C31.8024 17.0107 31.0024 17 30.2878 17C29.7864 17 29.3011 17.016 28.8318 17.048C28.3624 17.0907 28.0584 17.1173 27.9198 17.128L28.0158 16.2ZM36.2033 16.2C36.5659 16.1573 36.8113 16.0613 36.9393 15.912C37.0673 15.752 37.1313 15.4853 37.1313 15.112L37.1473 10.552C37.1473 10.2853 37.1206 10.1093 37.0673 10.024C37.0139 9.928 36.9019 9.88 36.7313 9.88L36.3473 9.896L36.2513 9.768L36.3633 8.952C36.5339 8.952 36.8593 8.95733 37.3393 8.968C37.8299 8.97867 38.3526 8.984 38.9073 8.984C40.7953 8.984 42.1393 8.936 42.9393 8.84L43.0513 8.984C43.0193 9.12267 42.9659 9.42667 42.8913 9.896C42.8273 10.3547 42.7793 10.8293 42.7473 11.32L41.4193 11.4C41.4193 11.368 41.4246 11.304 41.4353 11.208C41.4459 11.1013 41.4513 11 41.4513 10.904C41.4513 10.6693 41.4139 10.504 41.3393 10.408C41.2646 10.312 41.1206 10.248 40.9073 10.216C40.6939 10.1733 40.3419 10.152 39.8513 10.152C39.5633 10.152 39.3819 10.1733 39.3073 10.216C39.2433 10.2587 39.2059 10.3653 39.1953 10.536L39.1153 12.344H40.2993C40.4913 12.344 40.7633 12.3333 41.1153 12.312C41.4673 12.28 41.7019 12.2587 41.8193 12.248L41.9473 12.392L41.7553 13.544C41.6379 13.544 41.4139 13.5387 41.0833 13.528C40.7633 13.5173 40.4219 13.512 40.0593 13.512C39.7713 13.512 39.4406 13.5387 39.0673 13.592C39.0459 14.104 39.0353 14.6267 39.0353 15.16C39.0353 15.3947 39.0513 15.56 39.0833 15.656C39.1153 15.752 39.1846 15.8213 39.2913 15.864C39.3979 15.896 39.5793 15.912 39.8353 15.912C40.3686 15.912 40.7579 15.88 41.0033 15.816C41.2486 15.7413 41.4246 15.6133 41.5313 15.432C41.6379 15.24 41.7233 14.9307 41.7873 14.504L43.0033 14.408L43.1313 14.552C43.0993 14.68 43.0406 14.9787 42.9553 15.448C42.8806 15.9173 42.8166 16.4133 42.7633 16.936L42.6193 17.08C42.3526 17.0693 41.7713 17.0533 40.8753 17.032C39.9899 17.0107 39.1899 17 38.4753 17C37.9739 17 37.4886 17.016 37.0193 17.048C36.5499 17.0907 36.2459 17.1173 36.1073 17.128L36.2033 16.2ZM50.6628 17.192C50.0441 17.192 49.5588 16.808 49.2068 16.04L48.1348 13.944H47.2388L47.2228 15.176C47.2228 15.464 47.2441 15.672 47.2868 15.8C47.3294 15.9173 47.4094 15.9973 47.5268 16.04C47.6548 16.0827 47.8681 16.1093 48.1668 16.12L48.2308 16.2L48.0868 17.048C47.9161 17.0373 47.6121 17.0267 47.1748 17.016C46.7481 17.016 46.3748 17.016 46.0548 17.016C45.7134 17.016 45.3614 17.0267 44.9988 17.048C44.6361 17.0693 44.4014 17.0853 44.2948 17.096L44.4068 16.168C44.7694 16.1253 45.0094 16.0347 45.1268 15.896C45.2548 15.7467 45.3188 15.496 45.3188 15.144L45.3348 10.456C45.3348 10.232 45.3028 10.0827 45.2388 10.008C45.1854 9.92267 45.0841 9.88 44.9348 9.88L44.4708 9.896L44.3748 9.784L44.5028 8.968L46.1988 8.984C46.5721 8.984 46.9721 8.97867 47.3988 8.968C47.8254 8.94667 48.1241 8.93067 48.2948 8.92C49.3508 8.92 50.1561 9.10667 50.7108 9.48C51.2654 9.85333 51.5428 10.3973 51.5428 11.112C51.5428 11.6027 51.3934 12.0507 51.0948 12.456C50.7961 12.8613 50.3641 13.2027 49.7988 13.48L50.8708 15.128C51.1268 15.5013 51.3668 15.7733 51.5908 15.944C51.8148 16.1147 52.0548 16.2 52.3108 16.2L52.4228 16.344L52.3108 17.064L50.6628 17.192ZM48.4227 12.824C49.1374 12.568 49.4948 12.0773 49.4948 11.352C49.4948 10.9253 49.3401 10.6107 49.0308 10.408C48.7214 10.1947 48.2468 10.088 47.6068 10.088C47.5214 10.088 47.4628 10.1093 47.4308 10.152C47.4094 10.184 47.3934 10.2587 47.3828 10.376C47.3188 11.2507 47.2868 12.024 47.2868 12.696L48.4227 12.824ZM54.8628 17.176C54.4788 17.176 54.1854 17.0693 53.9828 16.856C53.7908 16.6427 53.6948 16.3547 53.6948 15.992C53.6948 15.608 53.8068 15.2987 54.0308 15.064C54.2654 14.8187 54.5801 14.696 54.9748 14.696C55.3374 14.696 55.6201 14.808 55.8228 15.032C56.0361 15.2453 56.1428 15.528 56.1428 15.88C56.1428 16.264 56.0254 16.5787 55.7908 16.824C55.5561 17.0587 55.2468 17.176 54.8628 17.176Z" fill="black"/>
</svg>
