<svg width="62" height="21" viewBox="0 0 62 21" fill="none" xmlns="http://www.w3.org/2000/svg">
<path d="M3.77626 0.569L3.73426 1.003L2.95026 0.961H2.49526L2.47426 3.6L2.49526 5H1.92826L1.97026 3.649L1.93526 0.961H1.48026L0.682261 1.003L0.647261 0.947L0.689261 0.513H3.73426L3.77626 0.569ZM7.0329 4.552L7.0749 4.594L7.0259 5H4.9049L4.9259 3.95L4.9049 1.514H7.0399L7.0749 1.556L7.0329 1.962L6.1509 1.934L5.4229 1.941L5.4159 2.998L6.1089 3.005L6.7179 2.984L6.7529 3.033L6.7109 3.446L6.0669 3.425L5.4159 3.432L5.4089 3.908L5.4159 4.573L6.1019 4.58L7.0329 4.552ZM10.1729 4.608L10.1379 5H8.28289L8.30389 3.95L8.28289 1.514H8.80789L8.78689 3.908L8.80089 4.559H10.1449L10.1729 4.608ZM13.1616 4.608L13.1266 5H11.2716L11.2926 3.95L11.2716 1.514H11.7966L11.7756 3.908L11.7896 4.559H13.1336L13.1616 4.608ZM19.4895 5H19.0205L18.9435 3.936L18.7545 2.326H18.7125L17.7115 4.608H17.2985L16.3535 2.326H16.3115L16.1295 3.894L16.0315 5H15.5835L15.9685 1.514H16.5775L16.7525 2.039L17.5155 3.915H17.5575L18.3555 2.011L18.5375 1.514H19.1325L19.4895 5ZM23.0358 4.552L23.0778 4.594L23.0288 5H20.9078L20.9288 3.95L20.9078 1.514H23.0428L23.0778 1.556L23.0358 1.962L22.1538 1.934L21.4258 1.941L21.4188 2.998L22.1118 3.005L22.7208 2.984L22.7558 3.033L22.7138 3.446L22.0698 3.425L21.4188 3.432L21.4118 3.908L21.4188 4.573L22.1048 4.58L23.0358 4.552ZM28.5211 5H27.9961L27.9121 4.622L27.7301 4.104L26.8971 4.097L26.1551 4.104L25.9661 4.594L25.8681 5H25.3501L26.6941 1.514H27.2961L28.5211 5ZM27.5831 3.677L27.0021 2.025H26.9601L26.3231 3.677L26.9391 3.684L27.5831 3.677ZM31.3751 3.187C31.8931 3.28967 32.1521 3.565 32.1521 4.013C32.1521 4.349 32.0215 4.601 31.7601 4.769C31.4988 4.937 31.1161 5.021 30.6121 5.021C30.3088 5.021 30.0171 5.014 29.7371 5L29.7581 3.95L29.7371 1.514L30.8291 1.507C31.1791 1.507 31.4498 1.58167 31.6411 1.731C31.8371 1.87567 31.9351 2.08333 31.9351 2.354C31.9351 2.55467 31.8861 2.725 31.7881 2.865C31.6901 3.005 31.5525 3.11233 31.3751 3.187ZM31.3821 2.417C31.3821 2.24433 31.3261 2.11833 31.2141 2.039C31.1021 1.95967 30.9225 1.92 30.6751 1.92H30.2481L30.2411 2.998L30.8641 3.019C31.0368 2.98167 31.1651 2.91633 31.2491 2.823C31.3378 2.725 31.3821 2.58967 31.3821 2.417ZM30.6751 4.622C30.9785 4.622 31.2095 4.57067 31.3681 4.468C31.5315 4.36067 31.6131 4.20433 31.6131 3.999C31.6131 3.831 31.5571 3.70033 31.4451 3.607C31.3331 3.51367 31.1628 3.45067 30.9341 3.418L30.2411 3.425L30.2341 3.908L30.2481 4.601C30.3928 4.615 30.5351 4.622 30.6751 4.622ZM34.8292 1.472C35.3379 1.472 35.7276 1.62133 35.9982 1.92C36.2736 2.21867 36.4112 2.641 36.4112 3.187C36.4112 3.77967 36.2642 4.23933 35.9702 4.566C35.6809 4.888 35.2656 5.049 34.7242 5.049C34.2202 5.049 33.8306 4.89733 33.5552 4.594C33.2799 4.286 33.1422 3.84967 33.1422 3.285C33.1422 2.70633 33.2892 2.26067 33.5832 1.948C33.8772 1.63067 34.2926 1.472 34.8292 1.472ZM34.7802 1.913C34.4116 1.913 34.1362 2.018 33.9542 2.228C33.7769 2.438 33.6882 2.76933 33.6882 3.222C33.6882 3.70733 33.7769 4.05967 33.9542 4.279C34.1316 4.49833 34.4022 4.608 34.7662 4.608C35.1396 4.608 35.4172 4.50067 35.5992 4.286C35.7812 4.07133 35.8722 3.73533 35.8722 3.278C35.8722 2.80667 35.7812 2.46133 35.5992 2.242C35.4219 2.02267 35.1489 1.913 34.7802 1.913ZM40.3847 3.285V3.789C40.3894 4.18567 40.2681 4.49367 40.0207 4.713C39.7781 4.93233 39.4281 5.042 38.9707 5.042C38.5181 5.042 38.1727 4.93467 37.9347 4.72C37.6967 4.50067 37.5824 4.19033 37.5917 3.789L37.5987 3.257L37.5917 1.514H38.1167L38.0887 3.705C38.0841 3.999 38.1564 4.22067 38.3057 4.37C38.4597 4.51933 38.6884 4.594 38.9917 4.594C39.2904 4.594 39.5167 4.51933 39.6707 4.37C39.8247 4.22067 39.8994 3.999 39.8947 3.705L39.8737 1.514H40.4057L40.3847 3.285ZM44.1005 1.556L44.0655 1.997L43.4145 1.948H43.0645L43.0435 3.908L43.0645 5H42.5395L42.5605 3.95L42.5465 1.948H42.1965L41.5315 1.997L41.4895 1.948L41.5315 1.514H44.0725L44.1005 1.556ZM48.0175 3.999L48.0385 5H47.5135L47.5415 3.999L47.5345 3.782L46.3515 1.514H46.9255L46.9955 1.717L47.7795 3.215H47.8145L48.6685 1.738L48.7595 1.514H49.3195L48.0245 3.782L48.0175 3.999ZM51.5978 1.472C52.1065 1.472 52.4961 1.62133 52.7668 1.92C53.0421 2.21867 53.1798 2.641 53.1798 3.187C53.1798 3.77967 53.0328 4.23933 52.7388 4.566C52.4495 4.888 52.0341 5.049 51.4928 5.049C50.9888 5.049 50.5991 4.89733 50.3238 4.594C50.0485 4.286 49.9108 3.84967 49.9108 3.285C49.9108 2.70633 50.0578 2.26067 50.3518 1.948C50.6458 1.63067 51.0611 1.472 51.5978 1.472ZM51.5488 1.913C51.1801 1.913 50.9048 2.018 50.7228 2.228C50.5455 2.438 50.4568 2.76933 50.4568 3.222C50.4568 3.70733 50.5455 4.05967 50.7228 4.279C50.9001 4.49833 51.1708 4.608 51.5348 4.608C51.9081 4.608 52.1858 4.50067 52.3678 4.286C52.5498 4.07133 52.6408 3.73533 52.6408 3.278C52.6408 2.80667 52.5498 2.46133 52.3678 2.242C52.1905 2.02267 51.9175 1.913 51.5488 1.913ZM57.1533 3.285V3.789C57.158 4.18567 57.0366 4.49367 56.7893 4.713C56.5466 4.93233 56.1966 5.042 55.7393 5.042C55.2866 5.042 54.9413 4.93467 54.7033 4.72C54.4653 4.50067 54.351 4.19033 54.3603 3.789L54.3673 3.257L54.3603 1.514H54.8853L54.8573 3.705C54.8526 3.999 54.925 4.22067 55.0743 4.37C55.2283 4.51933 55.457 4.594 55.7603 4.594C56.059 4.594 56.2853 4.51933 56.4393 4.37C56.5933 4.22067 56.668 3.999 56.6633 3.705L56.6423 1.514H57.1743L57.1533 3.285ZM60.2671 3.593C60.5517 4.027 60.8667 4.454 61.2121 4.874L61.2051 4.944C61.0091 5.00467 60.8481 5.03967 60.7221 5.049L60.6311 4.993C60.2764 4.45633 60.0081 4.034 59.8261 3.726L59.1681 3.733V3.908L59.1821 5H58.6641L58.6851 3.95L58.6641 1.514L59.8541 1.507C60.2227 1.507 60.5051 1.59333 60.7011 1.766C60.9017 1.93867 61.0021 2.18833 61.0021 2.515C61.0021 2.753 60.9367 2.96533 60.8061 3.152C60.6801 3.33867 60.5004 3.48567 60.2671 3.593ZM59.1751 3.299L59.8331 3.32C60.2484 3.20333 60.4561 2.949 60.4561 2.557C60.4561 2.35167 60.3954 2.19767 60.2741 2.095C60.1527 1.99233 59.9684 1.93633 59.7211 1.927L59.1821 1.934L59.1751 3.299ZM7.66081 20.224C5.64481 20.224 4.08748 19.712 2.98881 18.688C1.90081 17.664 1.35681 16.0267 1.35681 13.776C1.35681 9.47733 3.44748 7.328 7.62881 7.328C8.64215 7.328 9.58081 7.45067 10.4448 7.696C11.3195 7.94133 11.9701 8.21333 12.3968 8.512V12.512H8.55681V11.36C8.55681 10.9547 8.46615 10.656 8.28481 10.464C8.10348 10.272 7.83148 10.176 7.46881 10.176C7.10615 10.176 6.83415 10.272 6.65281 10.464C6.47148 10.656 6.38081 10.9547 6.38081 11.36V16.192C6.38081 16.5973 6.47148 16.896 6.65281 17.088C6.83415 17.28 7.10615 17.376 7.46881 17.376C7.83148 17.376 8.10348 17.28 8.28481 17.088C8.46615 16.896 8.55681 16.5973 8.55681 16.192V14.896H12.3968V19.04C11.9595 19.3387 11.3088 19.6107 10.4448 19.856C9.59148 20.1013 8.66348 20.224 7.66081 20.224ZM22.2957 17.376V20H18.0717V18.912C17.837 19.2533 17.5064 19.5573 17.0797 19.824C16.6637 20.0907 16.1517 20.224 15.5437 20.224C14.7437 20.224 14.1144 20.0107 13.6557 19.584C13.197 19.1573 12.9677 18.5547 12.9677 17.776C12.9677 15.76 14.6797 14.7253 18.1037 14.672C18.0717 14.3093 17.933 14.064 17.6877 13.936C17.4424 13.7973 17.0264 13.728 16.4397 13.728C15.9597 13.728 15.4424 13.7813 14.8877 13.888C14.3437 13.984 13.8424 14.1173 13.3837 14.288V11.344C13.949 11.2053 14.5624 11.0933 15.2237 11.008C15.885 10.9227 16.5304 10.88 17.1597 10.88C18.749 10.88 19.885 11.168 20.5677 11.744C21.2504 12.32 21.5917 13.2107 21.5917 14.416V17.376H22.2957ZM18.0717 16.256C17.5917 16.256 17.2184 16.32 16.9517 16.448C16.6957 16.576 16.5677 16.7893 16.5677 17.088C16.5677 17.2693 16.621 17.4187 16.7277 17.536C16.845 17.6427 17.005 17.696 17.2077 17.696C17.485 17.696 17.6984 17.5787 17.8477 17.344C17.997 17.1093 18.0717 16.7787 18.0717 16.352V16.256ZM29.6434 10.88C29.8568 10.88 30.0594 10.9013 30.2514 10.944C30.4434 10.9867 30.6034 11.04 30.7314 11.104V14.16C30.2941 13.9787 29.8248 13.888 29.3234 13.888C28.6514 13.888 28.1341 14.064 27.7714 14.416C27.4088 14.768 27.2274 15.2907 27.2274 15.984V17.376H28.6674V20H22.8434V17.376H23.5474V13.728H22.8434V11.104H27.2274V12.272C27.5261 11.824 27.8674 11.4827 28.2514 11.248C28.6354 11.0027 29.0994 10.88 29.6434 10.88ZM36.0169 20.224C34.5023 20.224 33.3183 19.8293 32.4649 19.04C31.6116 18.24 31.1849 17.0773 31.1849 15.552C31.1849 14.0267 31.6116 12.8693 32.4649 12.08C33.3183 11.28 34.5023 10.88 36.0169 10.88C37.5209 10.88 38.6036 11.2747 39.2649 12.064C39.9369 12.8427 40.2729 13.8133 40.2729 14.976V16.128H35.0889V16.224C35.0889 16.6187 35.2063 16.912 35.4409 17.104C35.6756 17.2853 36.0649 17.376 36.6089 17.376C37.2596 17.376 37.8783 17.328 38.4649 17.232C39.0516 17.136 39.5636 17.0133 40.0009 16.864V19.424C39.6276 19.6267 39.0783 19.8133 38.3529 19.984C37.6383 20.144 36.8596 20.224 36.0169 20.224ZM36.9449 14.368V14.176C36.9449 13.8133 36.8649 13.552 36.7049 13.392C36.5556 13.232 36.3263 13.152 36.0169 13.152C35.7076 13.152 35.4729 13.2373 35.3129 13.408C35.1636 13.568 35.0889 13.824 35.0889 14.176V14.368H36.9449ZM45.5169 20.224C44.0023 20.224 42.8183 19.8293 41.9649 19.04C41.1116 18.24 40.6849 17.0773 40.6849 15.552C40.6849 14.0267 41.1116 12.8693 41.9649 12.08C42.8183 11.28 44.0023 10.88 45.5169 10.88C47.0209 10.88 48.1036 11.2747 48.7649 12.064C49.4369 12.8427 49.7729 13.8133 49.7729 14.976V16.128H44.5889V16.224C44.5889 16.6187 44.7063 16.912 44.9409 17.104C45.1756 17.2853 45.5649 17.376 46.1089 17.376C46.7596 17.376 47.3783 17.328 47.9649 17.232C48.5516 17.136 49.0636 17.0133 49.5009 16.864V19.424C49.1276 19.6267 48.5783 19.8133 47.8529 19.984C47.1383 20.144 46.3596 20.224 45.5169 20.224ZM46.4449 14.368V14.176C46.4449 13.8133 46.3649 13.552 46.2049 13.392C46.0556 13.232 45.8263 13.152 45.5169 13.152C45.2076 13.152 44.9729 13.2373 44.8129 13.408C44.6636 13.568 44.5889 13.824 44.5889 14.176V14.368H46.4449ZM57.0809 10.88C57.2943 10.88 57.4969 10.9013 57.6889 10.944C57.8809 10.9867 58.0409 11.04 58.1689 11.104V14.16C57.7316 13.9787 57.2623 13.888 56.7609 13.888C56.0889 13.888 55.5716 14.064 55.2089 14.416C54.8463 14.768 54.6649 15.2907 54.6649 15.984V17.376H56.1049V20H50.2809V17.376H50.9849V13.728H50.2809V11.104H54.6649V12.272C54.9636 11.824 55.3049 11.4827 55.6889 11.248C56.0729 11.0027 56.5369 10.88 57.0809 10.88ZM57.6009 20V17.376H60.0969V20H57.6009Z" fill="black"/>
</svg>
